<svg  xmlns="http://www.w3.org/2000/svg" viewBox='0 0 520 651'  width='1rem' height='1rem' > 
        <g >

          <path
            d="M205.642 594.097c-30.052-31.492-54.095-58.527-53.428-60.078.665-1.551 58.027-60.89 127.468-131.863L405.94 273.114l57.22 57.22 57.221 57.221-129.074 131.9c-70.99 72.546-129.513 131.901-130.05 131.901-.536 0-25.563-25.766-55.615-57.259z"
          />
          <path
            d="M.476 411.115c.262-68.339 1.388-188.796 2.502-267.683L5.003 0l74.218 136.132 74.218 136.131v263.104H0z"
          />
          <path
            d="M152.817 273.722c.61-2.046 26.9-59.89 58.423-128.542 31.522-68.652 59.027-128.603 61.122-133.224 2.094-4.622 4.678-8.92 5.741-9.554 2.455-1.463-.087-6.723 62.643 129.586 62.877 136.626 64.86 141.112 63.11 142.801-.743.716-57.78 1.606-126.75 1.978-120.763.65-125.358.537-124.289-3.045z"
          />
        </g>
</svg>